<svg xmlns="http://www.w3.org/2000/svg" viewBox="0 0 512 512"><rect width="512" height="512" rx="112" fill="#1f1d1a"/><g transform="translate(-301.4,403.2) scale(3.2000)"><path d="M186.2 -86.08V-79.07C182.46 -80.43 178.41 -81.17 174.2 -81.17C169.99 -81.17 165.94 -80.43 162.2 -79.07V-86.08C166 -87.22 170.03 -87.83 174.2 -87.83C178.37 -87.83 182.4 -87.22 186.2 -86.08ZM186.2 -5.92C182.4 -4.78 178.37 -4.17 174.2 -4.17C170.03 -4.17 166 -4.78 162.2 -5.92V-12.93C165.94 -11.57 169.99 -10.83 174.2 -10.83C178.41 -10.83 182.46 -11.57 186.2 -12.93V-5.92Z" fill="#989794"/><path d="M124.6 -46Q124.6 -60.2 131.1 -71Q137.6 -81.8 148.9 -87.9Q156.01 -91.74 164.2 -93.16V-73.29Q162.12 -72.52 160.2 -71.4Q154 -67.8 150.4 -61.2Q146.8 -54.6 146.8 -46Q146.8 -37.4 150.4 -30.9Q154 -24.4 160.2 -20.7Q162.12 -19.55 164.2 -18.76V1.16Q156.01 -0.26 148.9 -4.1Q137.6 -10.2 131.1 -21.1Q124.6 -32 124.6 -46Z" fill="#fbfaf7"/><path d="M184.2 1.18V-18.76Q186.28 -19.55 188.2 -20.7Q194.4 -24.4 198 -30.9Q201.6 -37.4 201.6 -46Q201.6 -54.6 198 -61.2Q194.4 -67.8 188.2 -71.4Q186.28 -72.52 184.2 -73.29V-93.18Q192.5 -91.77 199.6 -87.9Q210.8 -81.8 217.3 -71Q223.8 -60.2 223.8 -46Q223.8 -32 217.3 -21.1Q210.8 -10.2 199.6 -4.1Q192.5 -0.23 184.2 1.18Z" fill="#e0b25c"/></g></svg>